<?xml version="1.0" standalone="no"?>
<!DOCTYPE svg PUBLIC "-//W3C//DTD SVG 20010904//EN"
 "http://www.w3.org/TR/2001/REC-SVG-20010904/DTD/svg10.dtd">
<svg version="1.0" xmlns="http://www.w3.org/2000/svg"
 width="265.000000pt" height="265.000000pt" viewBox="0 0 265.000000 265.000000"
 preserveAspectRatio="xMidYMid meet">
<metadata>
Created by potrace 1.11, written by Peter Selinger 2001-2013
</metadata>
<g transform="translate(0.000000,265.000000) scale(0.100000,-0.100000)"
fill="#000000" stroke="none">
<path d="M2324 2235 c-71 -35 -170 -117 -324 -268 -75 -73 -150 -143 -167
-156 -17 -14 -37 -34 -43 -46 -7 -13 -39 -35 -72 -50 -126 -58 -264 -166 -299
-232 -8 -16 -21 -33 -29 -40 -24 -20 -92 -50 -128 -56 -87 -17 -249 -99 -334
-168 -26 -22 -51 -39 -57 -39 -6 0 -29 10 -52 22 -75 39 -190 19 -264 -46
l-30 -26 -15 25 c-20 35 -72 51 -111 35 -34 -14 -46 -32 -54 -81 -3 -19 -14
-52 -24 -74 -10 -22 -21 -48 -24 -57 -8 -22 -21 -23 -37 -3 -20 24 -25 18 -28
-30 -2 -40 1 -47 33 -72 19 -15 35 -36 35 -45 0 -22 -9 -23 -38 -3 -18 13 -26
14 -44 4 -13 -7 -35 -14 -50 -15 -39 -3 -66 -21 -83 -54 -35 -68 -10 -126 70
-164 65 -31 94 -30 131 4 17 16 28 21 31 13 10 -27 83 -133 116 -167 82 -84
152 -67 159 39 3 33 7 40 24 41 27 1 127 13 174 20 65 10 115 26 156 50 42 24
54 40 61 84 5 29 8 33 31 36 268 39 487 111 637 209 44 29 89 63 100 76 51 61
85 110 125 179 24 41 53 83 64 93 23 18 96 42 161 52 97 14 201 49 277 92 84
49 139 123 119 161 -5 9 -11 46 -14 82 -3 36 -6 66 -6 68 -3 10 -46 -3 -95
-28 -59 -31 -256 -161 -290 -192 -10 -9 -36 -20 -57 -23 -43 -7 -220 -90 -231
-108 -4 -7 -8 -33 -8 -58 0 -45 -2 -48 -47 -78 -63 -40 -98 -73 -128 -122 -22
-34 -30 -39 -63 -40 -20 0 -46 -2 -57 -3 -11 -2 -56 -6 -100 -10 -44 -5 -83
-10 -86 -12 -3 -2 -11 7 -16 19 -20 42 -34 80 -31 82 2 1 26 14 53 28 68 34
145 105 194 179 23 34 61 73 86 90 25 17 65 55 88 84 47 61 92 95 152 114 22
7 59 23 82 35 23 13 66 31 95 40 238 77 479 201 524 270 19 30 11 75 -18 101
-11 11 -36 43 -55 72 -39 58 -77 92 -102 92 -10 0 -39 -11 -67 -25z m-1849
-1671 c11 -8 37 -19 58 -25 l39 -10 -5 -47 c-11 -101 -79 -83 -168 45 l-30 43
31 -6 c19 -4 30 -2 30 5 0 15 21 13 45 -5z"/>
<path d="M925 2056 c-40 -17 -61 -43 -73 -88 -8 -30 -7 -44 10 -78 54 -110
207 -87 231 35 17 87 -85 167 -168 131z"/>
<path d="M568 1869 c-26 -15 -22 -56 6 -74 45 -30 83 15 56 66 -12 21 -35 24
-62 8z"/>
<path d="M761 1722 c-33 -32 -34 -71 -4 -104 34 -37 104 -24 124 23 10 26 9
36 -4 65 -9 19 -22 34 -29 34 -7 0 -23 3 -35 6 -16 5 -30 -2 -52 -24z"/>
<path d="M397 1706 c-7 -16 1 -26 20 -26 7 0 13 9 13 20 0 23 -25 27 -33 6z"/>
<path d="M523 1650 c-83 -50 -43 -181 56 -180 103 1 132 146 37 185 -46 19
-55 19 -93 -5z"/>
<path d="M792 1488 c-18 -18 -14 -38 7 -38 27 0 37 19 19 36 -11 11 -17 12
-26 2z"/>
<path d="M628 1429 c-31 -18 -21 -69 16 -82 42 -16 75 52 39 79 -22 16 -32 17
-55 3z"/>
<path d="M485 1300 c-8 -13 4 -32 16 -25 12 8 12 35 0 35 -6 0 -13 -4 -16 -10z"/>
</g>
</svg>
